<svg xmlns="http://www.w3.org/2000/svg" width="24" height="24" viewBox="0 0 24 24" fill="none" stroke="currentColor" stroke-width="2" stroke-linecap="round" stroke-linejoin="round"><path d="M14.5 10.5c-1.12 0-2.09.9-2.09 2s.97 2 2.09 2h2.09c1.12 0 2.09-.9 2.09-2s-.97-2-2.09-2h-2.09z"/><path d="M9.5 14.5c1.12 0 2.09-.9 2.09-2s-.97-2-2.09-2H7.41c-1.12 0-2.09.9-2.09 2s.97 2 2.09 2h2.09z"/><path d="M10.5 14.5c0-1.12.9-2.09 2-2.09s2 .97 2 2.09v2.09c0 1.12-.9 2.09-2 2.09s-2-.97-2-2.09v-2.09z"/><path d="M13.5 9.5c0 1.12-.9 2.09-2 2.09s-2-.97-2-2.09V7.41c0-1.12.9-2.09 2-2.09s2 .97 2 2.09v2.09z"/><path d="M14.5 9.5c1.12 0 2.09.9 2.09 2s-.97 2-2.09 2h-2.09c-1.12 0-2.09-.9-2.09-2s.97-2 2.09-2h2.09zM9.5 13.5c-1.12 0-2.09.9-2.09 2s.97 2 2.09 2h2.09c1.12 0 2.09-.9 2.09-2s-.97-2-2.09-2h-2.09z"/><path d="M9.5 10.5c0-1.12.9-2.09 2-2.09s2 .97 2 2.09v2.09c0 1.12-.9 2.09-2 2.09s-2-.97-2-2.09v-2.09zM13.5 14.5c0 1.12-.9 2.09-2 2.09s-2-.97-2-2.09V7.41c0-1.12.9-2.09 2-2.09s2 .97 2 2.09v2.09z"/></svg>
